{
    "asset" : {
        "copyright" : "Softtek",
        "generator" : "Khronos glTF Blender I/O v1.7.33",
        "version" : "2.0"
    },
    "scene" : 0,
    "scenes" : [
        {
            "name" : "Scene",
            "nodes" : [
                0
            ]
        }
    ],
    "nodes" : [
        {
            "mesh" : 0,
            "name" : "Moneda_low1",
            "rotation" : [
                0.7071068286895752,
                0,
                0,
                0.7071067094802856
            ],
            "scale" : [
                0.009999999776482582,
                0.009999999776482582,
                0.009999999776482582
            ]
        }
    ],
    "materials" : [
        {
            "doubleSided" : true,
            "name" : "blinn1",
            "normalTexture" : {
                "index" : 0
            },
            "pbrMetallicRoughness" : {
                "baseColorTexture" : {
                    "index" : 1
                },
                "metallicRoughnessTexture" : {
                    "index" : 2
                }
            }
        }
    ],
    "meshes" : [
        {
            "name" : "Mesh",
            "primitives" : [
                {
                    "attributes" : {
                        "POSITION" : 0,
                        "NORMAL" : 1,
                        "TEXCOORD_0" : 2
                    },
                    "indices" : 3,
                    "material" : 0
                }
            ]
        }
    ],
    "textures" : [
        {
            "sampler" : 0,
            "source" : 0
        },
        {
            "sampler" : 0,
            "source" : 1
        },
        {
            "sampler" : 0,
            "source" : 2
        }
    ],
    "images" : [
        {
            "bufferView" : 4,
            "mimeType" : "image/png",
            "name" : "Moneda_low_blinn1_Normal"
        },
        {
            "bufferView" : 5,
            "mimeType" : "image/png",
            "name" : "Moneda_low_blinn1_BaseColor"
        },
        {
            "bufferView" : 6,
            "mimeType" : "image/png",
            "name" : "Moneda_low_blinn1_Metalness-Moneda_low_blinn1_Roughness"
        }
    ],
    "accessors" : [
        {
            "bufferView" : 0,
            "componentType" : 5126,
            "count" : 1740,
            "max" : [
                49.449153900146484,
                49.449153900146484,
                4.783699989318848
            ],
            "min" : [
                -49.449153900146484,
                -49.44914627075195,
                -4.783699989318848
            ],
            "type" : "VEC3"
        },
        {
            "bufferView" : 1,
            "componentType" : 5126,
            "count" : 1740,
            "type" : "VEC3"
        },
        {
            "bufferView" : 2,
            "componentType" : 5126,
            "count" : 1740,
            "type" : "VEC2"
        },
        {
            "bufferView" : 3,
            "componentType" : 5123,
            "count" : 8832,
            "type" : "SCALAR"
        }
    ],
    "bufferViews" : [
        {
            "buffer" : 0,
            "byteLength" : 20880,
            "byteOffset" : 0
        },
        {
            "buffer" : 0,
            "byteLength" : 20880,
            "byteOffset" : 20880
        },
        {
            "buffer" : 0,
            "byteLength" : 13920,
            "byteOffset" : 41760
        },
        {
            "buffer" : 0,
            "byteLength" : 17664,
            "byteOffset" : 55680
        },
        {
            "buffer" : 0,
            "byteLength" : 488467,
            "byteOffset" : 73344
        },
        {
            "buffer" : 0,
            "byteLength" : 804871,
            "byteOffset" : 561812
        },
        {
            "buffer" : 0,
            "byteLength" : 911923,
            "byteOffset" : 1366684
        }
    ],
    "samplers" : [
        {
            "magFilter" : 9729,
            "minFilter" : 9987
        }
    ],
    "buffers" : [
        {
            "byteLength" : 2278608,
            "uri" : "data:application/octet-stream;base64,"
        }
    ]
}
